<svg width="12" height="12" viewBox="0 0 12 12" fill="none" xmlns="http://www.w3.org/2000/svg">
<path d="M3.96469 6.44278L5.56468 11M3.96469 6.44278H1L1.04706 11H5.56468M3.96469 6.44278L3.96475 5.55723M3.96469 6.44278H8.03525M5.56468 11H6.43526M8.03525 6.44278H10.9999L10.9529 11H6.43526M8.03525 6.44278L6.43526 11M8.03525 6.44278L8.03531 5.55723M3.96475 5.55723H1.00006L1.04712 1H5.56474M3.96475 5.55723L5.56474 1M3.96475 5.55723H8.03531M5.56474 1H6.43532M8.03531 5.55723H11L10.9529 1H6.43532M8.03531 5.55723L6.43532 1" stroke="black"/>
</svg>
