<svg enable-background="new 0 0 24 24" height="23px" viewBox="0 0 24 24" width="23px" 
xmlns="http://www.w3.org/2000/svg"><g id="Layer_3"><g>
<path d="m4.25 0h-2.5c-.965 0-1.75.785-1.75 1.75v2.5c0 .965.785 1.75 1.75 1.75h2.5c.965 0 1.75-.785 1.75-1.75v-2.5c0-.965-.785-1.75-1.75-1.75z" fill="#000"/></g>
<g>
<path d="m4.25 9h-2.5c-.965 0-1.75.785-1.75 1.75v2.5c0 .965.785 1.75 1.75 1.75h2.5c.965 0 1.75-.785 1.75-1.75v-2.5c0-.965-.785-1.75-1.75-1.75z" fill="#000"/></g><g>
<path d="m4.25 18h-2.5c-.965 0-1.75.785-1.75 1.75v2.5c0 .965.785 1.75 1.75 1.75h2.5c.965 0 1.75-.785 1.75-1.75v-2.5c0-.965-.785-1.75-1.75-1.75z" fill="#000"/></g><g>
<path d="m13.25 0h-2.5c-.965 0-1.75.785-1.75 1.75v2.5c0 .965.785 1.75 1.75 1.75h2.5c.965 0 1.75-.785 1.75-1.75v-2.5c0-.965-.785-1.75-1.75-1.75z" fill="#000"/></g><g>
<path d="m13.25 9h-2.5c-.965 0-1.75.785-1.75 1.75v2.5c0 .965.785 1.75 1.75 1.75h2.5c.965 0 1.75-.785 1.75-1.75v-2.5c0-.965-.785-1.75-1.75-1.75z" fill="#000"/></g><g>
<path d="m13.25 18h-2.5c-.965 0-1.75.785-1.75 1.75v2.5c0 .965.785 1.75 1.75 1.75h2.5c.965 0 1.75-.785 1.75-1.75v-2.5c0-.965-.785-1.75-1.75-1.75z" fill="#000"/></g><g>
<path d="m22.25 0h-2.5c-.965 0-1.75.785-1.75 1.75v2.5c0 .965.785 1.75 1.75 1.75h2.5c.965 0 1.75-.785 1.75-1.75v-2.5c0-.965-.785-1.75-1.75-1.75z" fill="#000"/></g><g>
<path d="m22.25 9h-2.5c-.965 0-1.75.785-1.75 1.75v2.5c0 .965.785 1.75 1.75 1.75h2.5c.965 0 1.75-.785 1.75-1.75v-2.5c0-.965-.785-1.75-1.75-1.75z" fill="#000"/></g><g>
<path d="m22.25 18h-2.5c-.965 0-1.75.785-1.75 1.75v2.5c0 .965.785 1.75 1.75 1.75h2.5c.965 0 1.75-.785 1.75-1.75v-2.5c0-.965-.785-1.75-1.75-1.75z" fill="#000"/></g></g><g id="Layer_2"><g>
<path d="m4.25 6h-2.5c-.965 0-1.75-.785-1.75-1.75v-2.5c0-.965.785-1.75 1.75-1.75h2.5c.965 0 1.75.785 1.75 1.75v2.5c0 .965-.785 1.75-1.75 1.75zm-2.5-4.5c-.138 0-.25.112-.25.25v2.5c0 .138.112.25.25.25h2.5c.138 0 .25-.112.25-.25v-2.5c0-.138-.112-.25-.25-.25z"/></g><g>
<path d="m4.25 15h-2.5c-.965 0-1.75-.785-1.75-1.75v-2.5c0-.965.785-1.75 1.75-1.75h2.5c.965 0 1.75.785 1.75 1.75v2.5c0 .965-.785 1.75-1.75 1.75zm-2.5-4.5c-.138 0-.25.112-.25.25v2.5c0 .138.112.25.25.25h2.5c.138 0 .25-.112.25-.25v-2.5c0-.138-.112-.25-.25-.25z"/></g><g>
<path d="m4.25 24h-2.5c-.965 0-1.75-.785-1.75-1.75v-2.5c0-.965.785-1.75 1.75-1.75h2.5c.965 0 1.75.785 1.75 1.75v2.5c0 .965-.785 1.75-1.75 1.75zm-2.5-4.5c-.138 0-.25.112-.25.25v2.5c0 .138.112.25.25.25h2.5c.138 0 .25-.112.25-.25v-2.5c0-.138-.112-.25-.25-.25z"/></g><g>
<path d="m13.25 6h-2.5c-.965 0-1.75-.785-1.75-1.75v-2.5c0-.965.785-1.75 1.75-1.75h2.5c.965 0 1.75.785 1.75 1.75v2.5c0 .965-.785 1.75-1.75 1.75zm-2.5-4.5c-.138 0-.25.112-.25.25v2.5c0 .138.112.25.25.25h2.5c.138 0 .25-.112.25-.25v-2.5c0-.138-.112-.25-.25-.25z"/></g><g>
<path d="m13.25 15h-2.5c-.965 0-1.75-.785-1.75-1.75v-2.5c0-.965.785-1.75 1.75-1.75h2.5c.965 0 1.75.785 1.75 1.75v2.5c0 .965-.785 1.75-1.75 1.75zm-2.5-4.5c-.138 0-.25.112-.25.25v2.5c0 .138.112.25.25.25h2.5c.138 0 .25-.112.25-.25v-2.5c0-.138-.112-.25-.25-.25z"/></g><g>
<path d="m13.25 24h-2.5c-.965 0-1.75-.785-1.75-1.75v-2.5c0-.965.785-1.75 1.75-1.75h2.5c.965 0 1.75.785 1.75 1.75v2.5c0 .965-.785 1.75-1.75 1.75zm-2.5-4.5c-.138 0-.25.112-.25.25v2.5c0 .138.112.25.25.25h2.5c.138 0 .25-.112.25-.25v-2.5c0-.138-.112-.25-.25-.25z"/></g><g>
<path d="m22.25 6h-2.5c-.965 0-1.75-.785-1.75-1.75v-2.5c0-.965.785-1.75 1.75-1.75h2.5c.965 0 1.75.785 1.75 1.75v2.5c0 .965-.785 1.75-1.75 1.75zm-2.5-4.5c-.138 0-.25.112-.25.25v2.5c0 .138.112.25.25.25h2.5c.138 0 .25-.112.25-.25v-2.5c0-.138-.112-.25-.25-.25z"/></g><g>
<path d="m22.25 15h-2.5c-.965 0-1.75-.785-1.75-1.75v-2.5c0-.965.785-1.75 1.75-1.75h2.5c.965 0 1.75.785 1.75 1.75v2.5c0 .965-.785 1.75-1.75 1.75zm-2.5-4.5c-.138 0-.25.112-.25.25v2.5c0 .138.112.25.25.25h2.5c.138 0 .25-.112.25-.25v-2.5c0-.138-.112-.25-.25-.25z"/></g><g>
<path d="m22.25 24h-2.5c-.965 0-1.75-.785-1.75-1.75v-2.5c0-.965.785-1.75 1.75-1.75h2.5c.965 0 1.75.785 1.75 1.75v2.5c0 .965-.785 1.75-1.75 1.75zm-2.5-4.5c-.138 0-.25.112-.25.25v2.5c0 .138.112.25.25.25h2.5c.138 0 .25-.112.25-.25v-2.5c0-.138-.112-.25-.25-.25z"/></g></g></svg>