<svg width="22" height="23" viewBox="0 0 22 23" fill="none" xmlns="http://www.w3.org/2000/svg">
<path d="M8.64422 4.49982C6.11858 5.49353 3.75636 7.73023 3.50244 8.99982V15.9998L1.50244 19.9998H8.00244M8.64422 4.49982C9.43414 4.18903 10.2401 3.99982 11.0024 3.99982C11.7648 3.99982 12.7125 4.18921 13.5024 4.5M8.64422 4.49982C8.76363 3.54708 9.00244 1 11.0024 1C13.0024 1 13.383 3.54726 13.5024 4.5M8.00244 19.9998C7.83577 20.6665 9.00244 22.4998 11.0024 22.4998C13.0024 22.4998 14.1691 20.6665 14.0024 19.9998M8.00244 19.9998H14.0024M20.5024 20L18.5024 16V9C18.2485 7.73041 16.0281 5.49371 13.5024 4.5M20.5024 20L21.0024 19.9998M20.5024 20L14.0024 19.9998" stroke="black"/>
</svg>
