<svg width="120" height="42" viewBox="0 0 120 42" fill="none" xmlns="http://www.w3.org/2000/svg">
<path d="M15.75 13.86C15.75 13.98 15.6 14.04 15.3 14.04C15 14.04 14.83 13.96 14.79 13.8C14.47 12.54 14.09 11.81 13.65 11.61C12.59 11.21 10.83 11 8.37 10.98C7.99 11.02 7.73 11.13 7.59 11.31C7.45 11.49 7.38 11.84 7.38 12.36V19.56C8.64 19.54 9.88 19.48 11.1 19.38C12.34 19.28 13.01 19.2 13.11 19.14L13.41 17.37C13.43 17.23 13.55 17.16 13.77 17.16C14.19 17.16 14.38 17.25 14.34 17.43C14.24 18.21 14.19 19.09 14.19 20.07C14.19 21.05 14.24 21.93 14.34 22.71C14.38 22.87 14.23 22.95 13.89 22.95C13.57 22.95 13.41 22.89 13.41 22.77L13.08 20.97C12.96 20.91 12.29 20.83 11.07 20.73C9.87 20.61 8.64 20.54 7.38 20.52V26.16C7.38 27.92 7.59 28.8 8.01 28.8H9.75C9.91 28.8 9.99 29 9.99 29.4C9.99 29.8 9.91 30 9.75 30L5.97 29.97L1.77 30.06C1.61 30.06 1.53 29.89 1.53 29.55C1.53 29.21 1.61 29.04 1.77 29.04H3.06C3.56 29.04 3.89 28.95 4.05 28.77C4.21 28.57 4.29 28.2 4.29 27.66V13.44C4.29 11.68 4.08 10.8 3.66 10.8H1.92C1.76 10.8 1.68 10.64 1.68 10.32C1.68 9.98 1.76 9.81 1.92 9.81L5.7 9.87H14.58V9.24C14.58 9.06 14.72 8.97 15 8.97C15.3 8.97 15.45 9.06 15.45 9.24L15.75 13.86ZM34.0294 9.81L37.8094 9.87H41.2594C43.8994 9.87 45.8794 10.37 47.1994 11.37C48.5394 12.37 49.2094 13.56 49.2094 14.94C49.2094 16.32 48.7194 17.45 47.7394 18.33C46.7594 19.19 45.5094 19.79 43.9894 20.13C42.3494 20.31 41.3394 20.4 40.9594 20.4C40.5994 20.4 40.1094 20.34 39.4894 20.22V26.37C39.4894 28.13 39.6994 29.01 40.1194 29.01H41.8594C42.0194 29.01 42.0994 29.18 42.0994 29.52C42.0994 29.84 42.0194 30 41.8594 30L38.0794 29.97L33.8794 30.06C33.7194 30.06 33.6394 29.89 33.6394 29.55C33.6394 29.21 33.7194 29.04 33.8794 29.04H35.1694C35.6694 29.04 35.9994 28.95 36.1594 28.77C36.3194 28.57 36.3994 28.2 36.3994 27.66V13.44C36.3994 11.68 36.1894 10.8 35.7694 10.8H34.0294C33.8694 10.8 33.7894 10.64 33.7894 10.32C33.7894 9.98 33.8694 9.81 34.0294 9.81ZM41.0794 19.29C42.6194 19.29 43.8194 18.91 44.6794 18.15C45.5394 17.39 45.9694 16.45 45.9694 15.33C45.9694 14.21 45.5094 13.22 44.5894 12.36C43.6694 11.5 42.3594 11.07 40.6594 11.07C39.8794 11.07 39.4894 11.48 39.4894 12.3V19.11C40.0294 19.23 40.5594 19.29 41.0794 19.29ZM52.0894 27.9C52.2094 27.8 52.3294 27.81 52.4494 27.93C52.5694 28.03 52.6294 28.11 52.6294 28.17C52.6294 28.21 52.6194 28.25 52.5994 28.29C51.6194 29.69 50.5294 30.39 49.3294 30.39C48.4894 30.39 47.7194 30.1 47.0194 29.52C46.3194 28.94 45.7194 28.21 45.2194 27.33C44.7394 26.45 44.2694 25.55 43.8094 24.63C42.6694 22.29 41.5794 20.87 40.5394 20.37L42.4594 20.01C43.3794 20.17 44.1794 20.58 44.8594 21.24C45.5594 21.9 46.1194 22.64 46.5394 23.46C46.9594 24.26 47.3594 25.06 47.7394 25.86C48.6394 27.74 49.6194 28.68 50.6794 28.68C51.0594 28.68 51.5294 28.42 52.0894 27.9ZM67.2302 29.97L63.4202 30.06C63.2402 30.06 63.1502 29.89 63.1502 29.55C63.1502 29.21 63.2402 29.04 63.4202 29.04H65.1302C65.5502 29.04 65.7602 28.87 65.7602 28.53C65.7602 28.39 65.3802 27.2 64.6202 24.96C63.8602 22.7 63.3902 21.29 63.2102 20.73H57.7802C56.3602 25.25 55.6502 27.86 55.6502 28.56C55.6502 28.86 55.7102 29.01 55.8302 29.01H57.9902C58.2102 29.01 58.3202 29.18 58.3202 29.52C58.3202 29.84 58.1902 30 57.9302 30L54.0602 29.97L50.7302 30.06C50.5502 30.06 50.4602 29.89 50.4602 29.55C50.4602 29.21 50.5502 29.04 50.7302 29.04H52.2302C52.6702 29.04 53.0002 28.82 53.2202 28.38C54.0602 26.56 55.1202 23.85 56.4002 20.25C57.7002 16.65 58.5802 14.27 59.0402 13.11C59.5202 11.93 59.7602 11.28 59.7602 11.16C59.7602 11.02 59.7202 10.87 59.6402 10.71C59.5602 10.55 59.5202 10.45 59.5202 10.41C59.5202 10.25 59.6602 10.17 59.9402 10.17C60.2402 10.17 60.5102 10.1 60.7502 9.96C61.0102 9.82 61.1802 9.66 61.2602 9.48C61.4802 9.04 61.6802 8.82 61.8602 8.82C61.9402 8.82 62.0802 9.12 62.2802 9.72L68.3102 26.01C69.0702 28.01 69.6002 29.01 69.9002 29.01H70.9802C71.1802 29.01 71.2802 29.18 71.2802 29.52C71.2802 29.84 71.2002 30 71.0402 30L67.2302 29.97ZM60.5102 12.93C59.8902 14.53 59.1102 16.73 58.1702 19.53H62.7902C61.4502 15.47 60.7302 13.27 60.6302 12.93H60.5102ZM76.5084 28.62C76.5084 29.1 76.3384 29.52 75.9984 29.88C75.6784 30.22 75.2784 30.39 74.7984 30.39C74.3384 30.39 73.9384 30.23 73.5984 29.91C73.2584 29.57 73.0884 29.17 73.0884 28.71C73.0884 28.25 73.2384 27.85 73.5384 27.51C73.8584 27.15 74.2484 26.97 74.7084 26.97C75.1884 26.97 75.6084 27.13 75.9684 27.45C76.3284 27.75 76.5084 28.14 76.5084 28.62ZM84.3914 9.84L88.5914 9.75C88.7514 9.75 88.8314 9.92 88.8314 10.26C88.8314 10.6 88.7514 10.77 88.5914 10.77H87.3014C86.8014 10.77 86.4714 10.87 86.3114 11.07C86.1514 11.25 86.0714 11.61 86.0714 12.15V19.08H87.0614C91.7614 14.56 94.1114 11.96 94.1114 11.28C94.1114 10.94 93.9514 10.77 93.6314 10.77H92.7914C92.6514 10.77 92.5814 10.61 92.5814 10.29C92.5814 9.97 92.6514 9.81 92.7914 9.81L96.0314 9.87L99.3014 9.81C99.4614 9.81 99.5414 9.98 99.5414 10.32C99.5414 10.64 99.4514 10.8 99.2714 10.8H98.1914C97.9514 10.8 96.9214 11.68 95.1014 13.44C93.2814 15.2 91.3814 16.89 89.4014 18.51V18.63L96.0914 25.41C98.3314 27.67 99.6514 28.8 100.051 28.8H101.191C101.451 28.92 101.581 29.15 101.581 29.49C101.581 29.83 101.471 30 101.251 30C101.251 30 100.291 29.99 98.3714 29.97L93.6314 30.06C93.4514 30.06 93.3614 29.89 93.3614 29.55C93.3614 29.21 93.4514 29.04 93.6314 29.04H94.1114C94.6114 29.04 94.8614 28.89 94.8614 28.59C94.8614 28.39 94.7514 28.18 94.5314 27.96C90.7114 23.88 88.2714 21.29 87.2114 20.19H86.0714V26.37C86.0714 28.13 86.2814 29.01 86.7014 29.01H88.4414C88.6014 29.01 88.6814 29.18 88.6814 29.52C88.6814 29.84 88.6014 30 88.4414 30L84.6614 29.97L80.4614 30.06C80.3014 30.06 80.2214 29.89 80.2214 29.55C80.2214 29.21 80.3014 29.04 80.4614 29.04H81.7514C82.2514 29.04 82.5814 28.95 82.7414 28.77C82.9014 28.57 82.9814 28.2 82.9814 27.66V13.44C82.9814 11.68 82.7714 10.8 82.3514 10.8H80.6114C80.4514 10.8 80.3714 10.64 80.3714 10.32C80.3714 9.98 80.4514 9.81 80.6114 9.81L84.3914 9.84ZM101.219 30C101.059 30 100.979 29.88 100.979 29.64C100.979 29.4 101.089 29.21 101.309 29.07C101.729 28.81 104.739 24.25 110.339 15.39L113.129 10.98H105.599C105.259 10.98 104.889 11.14 104.489 11.46C103.749 12.1 103.199 13.17 102.839 14.67C102.819 14.85 102.689 14.94 102.449 14.94C101.969 14.94 101.749 14.85 101.789 14.67C101.989 12.91 102.209 11.2 102.449 9.54C102.489 9.24 102.719 9.09 103.139 9.09C103.579 9.09 103.799 9.23 103.799 9.51C103.799 9.67 103.819 9.77 103.859 9.81C103.899 9.85 103.979 9.87 104.099 9.87H117.179C117.379 9.87 117.479 9.98 117.479 10.2C117.479 10.34 117.389 10.47 117.209 10.59C116.989 10.67 115.899 12.23 113.939 15.27C111.999 18.31 110.109 21.32 108.269 24.3L105.509 28.8H113.879C115.159 28.8 116.239 27.25 117.119 24.15C117.179 23.93 117.319 23.82 117.539 23.82C117.919 23.82 118.109 23.91 118.109 24.09L117.419 30C117.399 30.22 117.349 30.37 117.269 30.45C117.209 30.53 117.039 30.57 116.759 30.57C116.479 30.59 116.339 30.53 116.339 30.39C116.339 30.19 115.639 30.07 114.239 30.03C112.859 30.01 108.519 30 101.219 30Z" fill="black"/>
<path d="M9.00018 39C43.5003 42.5001 -0.725003 27.1928 15.3801 29.6695M15.3801 29.6695C18.0589 27.0496 17.795 18.4 26.2705 21.0524M15.3801 29.6695C15.3599 31.0725 21.3255 30.1476 25.5123 29.4597L31.6862 28.4261M26.2705 21.0524L27.1098 21.7661M26.2705 21.0524L26.311 18.247L26.7356 18.2531L26.7154 19.6559L27.1401 19.662L27.1098 21.7661M31.6862 28.4261L29.1947 24.4618L27.949 22.4797L27.1098 21.7661M31.6862 28.4261L32.7478 28.4414M31.6862 28.4261L32.2313 29.3592M28 24.5L27.7083 25L27.5 24.5L27.7083 24.4404L28 24.718" stroke="#FF3E3E" stroke-width="0.85"/>
</svg>
